<?xml version="1.0" encoding="utf-8"?>
<!-- Generator: Adobe Illustrator 21.0.0, SVG Export Plug-In . SVG Version: 6.00 Build 0)  -->
<svg version="1.1" id="Layer_1" xmlns="http://www.w3.org/2000/svg" xmlns:xlink="http://www.w3.org/1999/xlink" x="0px" y="0px"
	 viewBox="0 0 375.5 100" style="enable-background:new 0 0 375.5 100;" xml:space="preserve">
<style type="text/css">
	.st0{fill:#010000;}
	.st1{fill:#0078BD;}
	.st2{fill:#1D1D1B;}
</style>
<g>
	<path class="st0" d="M25.2,62.1h-2.5c-0.6,0-1-0.4-1-1v-16H4.6v16c0,0.5-0.5,1-1,1H1c-0.5,0-1-0.4-1-1V27.3c0-0.5,0.5-1,1-1h2.6
		c0.5,0,1,0.4,1,1v14h17.1v-14c0-0.5,0.4-1,1-1h2.5c0.5,0,1,0.4,1,1v33.8C26.2,61.7,25.8,62.1,25.2,62.1z"/>
	<path class="st0" d="M53.8,50.2H37.1v0.6c0,5.5,2.7,8.1,7.3,8.1c2.9,0,6.3-0.3,8.6-0.7c0.1,0,0.1,0,0.2,0c0.4,0,0.8,0.2,0.8,0.7
		v1.6c0,0.6-0.2,1-1,1.1c-2.8,0.5-5.2,0.8-8.6,0.8c-5.8,0-11.7-2.6-11.7-11.9v-3.4c0-6.8,3.9-11.9,11.1-11.9c7.3,0,11,5,11,11.8v2
		C54.8,49.8,54.4,50.2,53.8,50.2z M50.3,46.7c0-5.1-2.1-7.7-6.5-7.7c-4.3,0-6.7,2.8-6.7,7.7V47h13.2V46.7z"/>
	<path class="st0" d="M64.7,62.1h-2.6c-0.5,0-0.9-0.4-0.9-1V26.8c0-0.5,0.4-0.9,0.9-0.9h2.6c0.5,0,0.9,0.4,0.9,0.9v34.3
		C65.6,61.6,65.2,62.1,64.7,62.1z"/>
	<path class="st0" d="M85.1,62.1c-1,0.1-3,0.3-4.8,0.3c-4.7,0-7.4-1.5-7.4-6.7V30.9c0-0.5,0.5-0.8,1-0.9l2.5-0.4c0,0,0.1,0,0.1,0
		c0.5,0,0.8,0.4,0.8,0.9v5.1h7.8c0.5,0,1,0.3,1,0.9v1.6c0,0.5-0.4,0.9-1,0.9h-7.8v16.7c0,2.8,1,3.3,3.7,3.3H85c0.7,0,1,0.2,1,0.7
		v1.6C86.1,61.8,85.8,62,85.1,62.1z"/>
	<path class="st0" d="M117.5,62.4c-7.8,0-13.5-4.4-13.5-15.1v-6.2c0-10.7,5.7-15.1,13.5-15.1c7.9,0,13.5,4.4,13.5,15.1v6.2
		C131,58,125.4,62.4,117.5,62.4z M126.4,41.1c0-8.1-3.4-11.2-8.9-11.2c-5.4,0-8.9,3.1-8.9,11.2v6.2c0,8.1,3.4,11.2,8.9,11.2
		c5.5,0,8.9-3.1,8.9-11.2V41.1z"/>
	<path class="st0" d="M147.7,62.4c-1.5,0-3.9-0.2-5.9-0.5v8.7c0,0.5-0.4,0.9-0.9,0.9h-2.6c-0.5,0-0.9-0.4-0.9-0.9V37.5
		c0-0.6,0.1-0.9,1.1-1.1c2.6-0.6,6.1-1.1,9.2-1.1c7.5,0,10.9,4.7,10.9,11.9v3.5C158.6,58.2,155,62.4,147.7,62.4z M154.2,47.2
		c0-5.1-1.5-8.3-6.5-8.3c-2.1,0-4.4,0.2-5.9,0.5v19c1.7,0.3,4.2,0.5,5.9,0.5c4.9,0,6.5-3.1,6.5-8.2V47.2z"/>
	<path class="st0" d="M174.7,62.4c-1.5,0-3.9-0.2-5.9-0.5v8.7c0,0.5-0.4,0.9-0.9,0.9h-2.6c-0.5,0-0.9-0.4-0.9-0.9V37.5
		c0-0.6,0.1-0.9,1.1-1.1c2.6-0.6,6.1-1.1,9.2-1.1c7.5,0,10.9,4.7,10.9,11.9v3.5C185.6,58.2,182,62.4,174.7,62.4z M181.2,47.2
		c0-5.1-1.5-8.3-6.5-8.3c-2.1,0-4.4,0.2-5.9,0.5v19c1.7,0.3,4.2,0.5,5.9,0.5c4.9,0,6.5-3.1,6.5-8.2V47.2z"/>
	<path class="st0" d="M195.5,62.1h-2.6c-0.5,0-0.9-0.4-0.9-1V26.8c0-0.5,0.4-0.9,0.9-0.9h2.6c0.5,0,0.9,0.4,0.9,0.9v34.3
		C196.4,61.6,196.1,62.1,195.5,62.1z"/>
	<path class="st0" d="M222.1,61.3c-2.2,0.6-4.9,1.1-8.5,1.1c-7.9,0-11-2.5-11-7.9v-0.4c0-5.3,3.1-7.8,12.1-7.8h3.7v-1.9
		c0-4-1.4-5.3-5.4-5.3c-3.2,0-5.6,0.1-7.6,0.3c-0.6,0-1.1-0.1-1.1-0.8v-1.7c0-0.5,0.4-0.8,1-0.9c2.1-0.3,4.4-0.6,7.8-0.6
		c7,0,9.8,3.4,9.8,9v15.9C222.9,60.8,222.7,61.2,222.1,61.3z M218.5,49.3h-3.7c-6.1,0-7.6,1.3-7.6,4.7v0.4c0,3.3,1.2,4.5,6.5,4.5
		c1.9,0,4-0.2,4.8-0.4V49.3z"/>
	<path class="st0" d="M239.8,71.6c-3.8,0-7-0.5-8.5-0.9c-0.7-0.2-1-0.4-1-1v-1.4c0-0.5,0.4-0.8,0.9-0.8c0.1,0,0.1,0,0.1,0
		c1.8,0.2,5.8,0.6,8.5,0.6c4.6,0,5.8-1.1,5.8-5.9v-0.5c-1.2,0.3-4.1,0.7-5.6,0.7c-6.2,0-11.1-2.8-11.1-11.8v-3.5
		c0-8,3.6-11.8,11.1-11.8c3,0,6.6,0.6,9,1.1c0.9,0.2,1,0.4,1,1.1V62C249.9,69.3,246.6,71.6,239.8,71.6z M245.5,39.4
		c-1.4-0.2-3.5-0.5-5.6-0.5c-4.9,0-6.7,2.3-6.7,8.2v3.5c0,6.2,2.3,8.3,6.7,8.3c1.4,0,4.1-0.2,5.6-0.5V39.4z"/>
	<path class="st0" d="M268.9,62.1c-1,0.1-3,0.3-4.8,0.3c-4.7,0-7.4-1.5-7.4-6.7V30.9c0-0.5,0.5-0.8,1-0.9l2.5-0.4c0,0,0.1,0,0.1,0
		c0.5,0,0.8,0.4,0.8,0.9v5.1h7.8c0.5,0,0.9,0.3,0.9,0.9v1.6c0,0.5-0.4,0.9-0.9,0.9h-7.8v16.7c0,2.8,1,3.3,3.7,3.3h4
		c0.7,0,1.1,0.2,1.1,0.7v1.6C269.9,61.8,269.7,62,268.9,62.1z"/>
</g>
<path class="st1" d="M371.7,96.2l3-13.3c1.1-4.8,0.9-11.1-5-13c-1.4-0.4-2.8-0.5-4.2-0.2c-4.2,0.8-7.8,4.6-12.3,3.8
	c-4.7-0.9-5.9-5.6-5.6-9.5c0.3-4.4,3.4-8.7,8.5-9.1c3.7-0.3,6.4,2.3,9.3,4c1.7,1.1,3.9,1.7,5.9,1.2c2.1-0.5,3.4-2.2,4-4
	c0.5-1.8,0.5-3.7,0-5.6l-5.5-21l-19.3,1.6c-3.6,0.3-7.9-0.7-8.8-4.2c-0.5-2,0.4-4,1.7-5.7c1.9-2.5,4.1-5,5.3-7.9
	c1-2.4,1.1-5.1-0.4-7.3c-2.7-4.2-7.9-6.1-13.1-6.2c-3.8-0.1-7.4,1.1-10.1,3.5c-2.2,2-3.5,4.7-3.1,7.5c0.4,3,1.6,5.9,2.8,8.7
	c1.1,2.5,2.2,5.1,1.2,7.8c-1.1,2.8-4.5,3.7-7.6,3.6L297,30.5l-1.3,16.4c-0.4,4.6-0.8,11.8,6,11.8c1.8,0,3.4-0.5,5.1-1.2
	c3.9-1.6,9-5.3,12.6-1.6c2.2,2.2,2.7,5.3,3,8.1c0.4,3.6-1,7.2-4.2,9.3c-3.3,2.2-7.2-0.1-10.5-1.6c-1.7-0.8-3.6-1.5-5.5-1.3
	c-3.8,0.3-6.3,3.3-7.2,6.5c-0.7,2.5-0.5,5.1,0.3,7.6l3.7,11.6H371.7z"/>
<g>
	<path class="st1" d="M174.8,95.5c-1,0-2.5-0.1-3.5-0.4v4.4c0,0.2-0.2,0.5-0.4,0.5h-0.2c-0.2,0-0.4-0.2-0.4-0.5V83.2
		c0-0.3,0.1-0.4,0.4-0.5c1.1-0.2,2.8-0.5,4.2-0.5c3.4,0,4.9,2.4,4.9,5.8v1.6C179.7,93.5,178,95.5,174.8,95.5z M178.6,88.1
		c0-3.1-1-4.9-3.8-4.9c-1.2,0-2.6,0.2-3.5,0.3v10.7c0.9,0.2,2.5,0.3,3.5,0.3c2.8,0,3.8-1.6,3.8-4.8V88.1z"/>
	<path class="st1" d="M191.1,94.9c-1.2,0.3-2.5,0.5-3.8,0.5c-3.8,0-5-1.3-5-3.9v-0.3c0-2.5,1.6-3.7,6.2-3.7h1.9v-0.9
		c0-2.5-0.7-3.5-3.1-3.5c-1.7,0-2.4,0.1-3.6,0.2c-0.3,0-0.6-0.1-0.6-0.4v-0.1c0-0.3,0.2-0.4,0.6-0.4c1.1-0.1,1.9-0.2,3.6-0.2
		c3.4,0,4.2,1.8,4.2,4.4v7.7C191.5,94.7,191.4,94.9,191.1,94.9z M190.4,88.5h-1.9c-3.8,0-5,0.7-5,2.7v0.3c0,1.9,0.7,2.9,3.9,2.9
		c1.2,0,2.6-0.2,3.1-0.3V88.5z M187,80.8c-1.3,0-2.3-1-2.3-2.2c0-1.2,1-2.2,2.3-2.2c1.3,0,2.3,1,2.3,2.2
		C189.3,79.7,188.2,80.8,187,80.8z M187,77.1c-0.8,0-1.4,0.6-1.4,1.4c0,0.8,0.6,1.4,1.4,1.4c0.8,0,1.5-0.6,1.5-1.4
		C188.4,77.8,187.8,77.1,187,77.1z"/>
	<path class="st1" d="M200.6,100c-0.4,0-0.7,0-1-0.1c-0.4,0-0.4-0.1-0.4-0.3v-0.2c0-0.2,0.2-0.3,0.5-0.3h0.9c1.1,0,1.5-0.3,1.5-1.7
		V82.9c0-0.2,0.1-0.5,0.4-0.5h0.3c0.3,0,0.4,0.2,0.4,0.5v14.5C203.2,99.4,202.3,100,200.6,100z M202.7,80h-0.1
		c-0.2,0-0.5-0.2-0.5-0.5v-1.8c0-0.2,0.2-0.5,0.5-0.5h0.1c0.2,0,0.5,0.2,0.5,0.5v1.8C203.2,79.8,203,80,202.7,80z"/>
	<path class="st1" d="M211.7,95.5c-3.4,0-5.1-2.1-5.1-5.7V88c0-3.6,1.7-5.7,5.1-5.7c3.4,0,5.1,2.1,5.1,5.7v1.7
		C216.9,93.3,215.1,95.5,211.7,95.5z M215.8,88c0-3-1.1-4.8-4.1-4.8c-2.9,0-4,1.9-4,4.8v1.7c0,3,1.1,4.8,4,4.8
		c2.9,0,4.1-1.9,4.1-4.8V88z"/>
	<path class="st1" d="M224.6,95.5c-1.4,0-3.1-0.2-4.2-0.5c-0.3-0.1-0.4-0.2-0.4-0.5V77.9c0-0.2,0.2-0.5,0.4-0.5h0.2
		c0.2,0,0.4,0.2,0.4,0.5v4.7c1-0.2,2.5-0.4,3.5-0.4c3.2,0,4.9,1.9,4.9,5.7v1.6C229.5,93.1,228,95.5,224.6,95.5z M228.4,88
		c0-3.2-1-4.8-3.8-4.8c-1,0-2.5,0.1-3.5,0.3v10.7c0.9,0.1,2.3,0.3,3.5,0.3c2.8,0,3.8-1.8,3.8-4.9V88z"/>
	<path class="st1" d="M237.2,95.5c-1.4,0-3.1-0.2-4.2-0.5c-0.3-0.1-0.4-0.2-0.4-0.5V77.9c0-0.2,0.2-0.5,0.4-0.5h0.2
		c0.2,0,0.4,0.2,0.4,0.5v4.7c1-0.2,2.5-0.4,3.5-0.4c3.2,0,4.9,1.9,4.9,5.7v1.6C242.1,93.1,240.6,95.5,237.2,95.5z M241,88
		c0-3.2-1-4.8-3.8-4.8c-1,0-2.5,0.1-3.5,0.3v10.7c0.9,0.1,2.3,0.3,3.5,0.3c2.8,0,3.8-1.8,3.8-4.9V88z"/>
	<path class="st1" d="M254.4,89.1h-8.4v0.5c0,4,2,4.9,4.5,4.9c1.1,0,2.5-0.2,3.7-0.4c0,0,0.1,0,0.1,0c0.2,0,0.4,0.1,0.4,0.3v0.2
		c0,0.3-0.1,0.4-0.5,0.5c-1.2,0.2-2.6,0.4-3.8,0.4c-3.1,0-5.6-1.3-5.6-5.8V88c0-3.3,1.8-5.7,5-5.7c3.5,0,5,2.3,5,5.7v0.6
		C254.8,88.9,254.6,89.1,254.4,89.1z M253.7,88c0-3-1-4.8-3.9-4.8c-2.8,0-3.9,1.9-3.9,4.8v0.1h7.8V88z"/>
	<path class="st1" d="M266.9,95.5h-0.2c-0.2,0-0.4-0.2-0.4-0.5v-8.3c0-3-1.4-3.4-3.1-3.4h-1.1c-1.7,0-3.1,0.4-3.1,3.4V95
		c0,0.2-0.2,0.5-0.4,0.5h-0.2c-0.2,0-0.4-0.2-0.4-0.5v-8.3c0-4,2.5-4.4,4.2-4.4h1.1c1.7,0,4.2,0.4,4.2,4.4V95
		C267.3,95.2,267.2,95.5,266.9,95.5z"/>
</g>
<g>
	<path class="st2" d="M268.7,19.6c2.2,0,4,1.7,4,3.9c0,2.2-1.8,3.9-4,3.9c-2.2,0-4-1.7-4-3.9C264.6,21.3,266.4,19.6,268.7,19.6
		L268.7,19.6z M268.6,20.2c-1.8,0-3.3,1.5-3.3,3.3c0,1.9,1.5,3.3,3.3,3.3c1.8,0,3.3-1.5,3.3-3.3C271.9,21.7,270.5,20.2,268.6,20.2
		L268.6,20.2z M267.9,25.8h-0.7v-4.4c0.4-0.1,0.7-0.1,1.3-0.1c0.7,0,1.1,0.1,1.4,0.3c0.3,0.2,0.4,0.5,0.4,0.9c0,0.6-0.4,0.9-0.9,1.1
		v0c0.4,0.1,0.7,0.4,0.8,1.1c0.1,0.7,0.2,0.9,0.3,1.1h-0.8c-0.1-0.1-0.2-0.5-0.3-1.1c-0.1-0.6-0.4-0.8-1-0.8h-0.5V25.8z M267.9,23.4
		h0.5c0.6,0,1.1-0.2,1.1-0.8c0-0.4-0.3-0.8-1.1-0.8c-0.2,0-0.4,0-0.5,0V23.4z"/>
</g>
</svg>
